<?xml version="1.0" encoding="utf-8"?>
<!-- Generator: Adobe Illustrator 26.3.1, SVG Export Plug-In . SVG Version: 6.00 Build 0)  -->
<svg version="1.1" xmlns="http://www.w3.org/2000/svg" xmlns:xlink="http://www.w3.org/1999/xlink" x="0px" y="0px"
	 viewBox="0 0 300 40" style="enable-background:new 0 0 300 40;" xml:space="preserve">
<g id="圖層_1">
</g>
<g id="圖層_2">
	<g>
		<g>
			<path style="fill:#FFFFFF;" d="M75.53,13.03v-1.17h4.68v9.08h-4.68v-1.66c-1.56-2.24-3.69-3.35-6.4-3.35
				c-1.42,0-2.58,0.31-3.49,0.94c-0.9,0.62-1.35,1.43-1.35,2.42c0,0.88,0.34,1.58,1.03,2.08c0.69,0.5,2.22,0.95,4.62,1.33l3.62,0.7
				c5.39,0.99,8.09,3.63,8.09,7.93c0,2.51-0.98,4.53-2.93,6.06c-1.95,1.53-4.54,2.29-7.76,2.29c-1.28,0-2.54-0.19-3.78-0.56
				c-1.24-0.37-2.28-0.84-3.11-1.39v1.48h-4.79v-9.36h4.79v0.94c0.26,1.32,0.99,2.38,2.2,3.17c1.2,0.8,2.61,1.2,4.2,1.2
				c1.75,0,3.13-0.31,4.14-0.92c1.01-0.61,1.51-1.53,1.51-2.74c0-0.88-0.4-1.55-1.2-1.99c-0.8-0.44-2.4-0.9-4.81-1.37l-2.78-0.6
				c-2.76-0.55-4.78-1.51-6.06-2.86c-1.28-1.35-1.92-3.08-1.92-5.18c0-1.7,0.47-3.15,1.42-4.36c0.95-1.2,2.15-2.11,3.63-2.72
				c1.47-0.61,2.99-0.91,4.55-0.91C71.54,11.5,73.74,12.01,75.53,13.03z"/>
			<path style="fill:#FFFFFF;" d="M102.3,11.13c5.08,0,7.62,2.75,7.62,8.24v15.03h4.63v4.79h-10.01V21.3c0-1.96-0.28-3.34-0.85-4.14
				c-0.56-0.8-1.43-1.2-2.61-1.2c-1.99,0-4.59,1.17-7.78,3.51v14.93h4.73v4.79H83.03v-4.79h4.89V4.74h-4.89V0h10.27v15.06
				C96.53,12.44,99.53,11.13,102.3,11.13z"/>
			<path style="fill:#FFFFFF;" d="M144.66,25.57c0,2.65-0.63,5.08-1.9,7.28c-1.27,2.2-2.99,3.94-5.18,5.23
				c-2.18,1.28-4.6,1.92-7.26,1.92c-2.74,0-5.21-0.64-7.41-1.92c-2.2-1.28-3.91-3.03-5.14-5.23c-1.22-2.2-1.83-4.63-1.83-7.28
				c0-2.77,0.61-5.25,1.83-7.44s2.93-3.9,5.11-5.14c2.18-1.24,4.66-1.86,7.44-1.86c2.69,0,5.12,0.65,7.31,1.96
				c2.18,1.31,3.9,3.07,5.15,5.27C144.04,20.57,144.66,22.97,144.66,25.57z M130.33,34.77c1.59,0,3.06-0.42,4.4-1.25
				c1.33-0.83,2.38-1.95,3.12-3.35c0.74-1.41,1.12-2.94,1.12-4.6c0-1.63-0.37-3.15-1.12-4.55c-0.75-1.41-1.79-2.54-3.12-3.39
				c-1.34-0.86-2.82-1.29-4.45-1.29c-1.6,0-3.06,0.42-4.4,1.26c-1.33,0.84-2.38,1.97-3.15,3.39c-0.76,1.42-1.14,2.95-1.14,4.58
				c0,1.63,0.38,3.16,1.14,4.58c0.76,1.42,1.82,2.55,3.17,3.38C127.26,34.36,128.73,34.77,130.33,34.77z"/>
			<path style="fill:#FFFFFF;" d="M153.88,16.67l5.18,16.46l5.2-16.46h-2.91v-4.81h13.13v4.81h-3.02l5.28,16.46L182,16.67h-3.77
				v-4.81h12.3v4.81h-3.95l-7.28,22.99h-5.07l-6.27-19.74l-6.35,19.74h-5.02l-7.33-22.99h-3.3v-4.81h11.5v4.81H153.88z"/>
			<path style="fill:#FFFFFF;" d="M191.53,39.2v-6.92h6.94v6.92H191.53z"/>
			<path style="fill:#FFFFFF;" d="M237.29,34.41v4.79h-10.27v-4c-2.74,2.98-6.01,4.47-9.8,4.47c-2.64,0-4.96-0.62-6.98-1.86
				c-2.02-1.24-3.59-2.93-4.71-5.06c-1.12-2.13-1.68-4.49-1.68-7.07c0-2.63,0.59-5.06,1.78-7.28s2.83-3.98,4.93-5.29
				c2.1-1.31,4.37-1.96,6.81-1.96c1.77,0,3.45,0.36,5.03,1.07c1.59,0.71,3.12,1.83,4.62,3.35V4.74h-5.28V0h10.61v34.41H237.29z
				 M218.23,34.88c1.66,0,3.16-0.44,4.5-1.33c1.33-0.88,2.38-2.06,3.15-3.54c0.76-1.47,1.14-3.05,1.14-4.73
				c0-1.7-0.38-3.25-1.14-4.66c-0.76-1.4-1.82-2.51-3.17-3.33c-1.35-0.81-2.88-1.22-4.58-1.22c-1.65,0-3.12,0.44-4.41,1.31
				c-1.29,0.88-2.31,2.04-3.06,3.49c-0.75,1.45-1.12,3-1.12,4.64c0,1.77,0.38,3.36,1.14,4.79c0.76,1.42,1.8,2.54,3.12,3.35
				C215.12,34.47,216.6,34.88,218.23,34.88z"/>
			<path style="fill:#FFFFFF;" d="M267.24,26.89h-22.91c0.33,2.62,1.34,4.69,3.04,6.2c1.7,1.52,3.78,2.28,6.24,2.28
				c1.8,0,3.48-0.37,5.02-1.12c1.54-0.75,2.83-1.89,3.87-3.43l4.73,2.13c-1.49,2.32-3.45,4.08-5.87,5.27
				c-2.42,1.19-5.05,1.78-7.89,1.78c-2.95,0-5.57-0.62-7.85-1.85c-2.29-1.23-4.07-2.95-5.34-5.15c-1.27-2.2-1.91-4.68-1.91-7.44
				c0-2.74,0.63-5.21,1.89-7.41c1.26-2.2,2.98-3.92,5.16-5.16c2.18-1.24,4.59-1.86,7.23-1.86c2.88,0,5.39,0.64,7.53,1.91
				c2.14,1.27,3.83,3.09,5.06,5.46C266.47,20.87,267.14,23.67,267.24,26.89z M252.76,15.61c-2.03,0-3.81,0.68-5.33,2.04
				s-2.51,3.16-2.94,5.4h17.11c-0.5-2.24-1.57-4.04-3.2-5.4C256.77,16.29,254.89,15.61,252.76,15.61z"/>
			<path style="fill:#FFFFFF;" d="M278.91,16.67l5.9,15.5l5.88-15.5h-3.8v-4.81H300v4.81h-4.16l-8.71,22.99h-4.86l-8.89-22.99h-4.84
				v-4.81h13.94v4.81H278.91z"/>
		</g>
		<rect y="38.19" style="fill:#FFFFFF;" width="44.06" height="1"/>
	</g>
</g>
</svg>
