<?xml version="1.0" encoding="utf-8"?>
<!-- Generator: Adobe Illustrator 26.3.1, SVG Export Plug-In . SVG Version: 6.00 Build 0)  -->
<svg version="1.1" xmlns="http://www.w3.org/2000/svg" xmlns:xlink="http://www.w3.org/1999/xlink" x="0px" y="0px"
	 viewBox="0 0 300 42" style="enable-background:new 0 0 300 42;" xml:space="preserve">
<g id="圖層_1">
</g>
<g id="圖層_2">
	<g>
		<g>
			<path style="fill:#FFFFFF;" d="M50.65,14.72v-1.18h4.74v9.18h-4.74v-1.68c-1.58-2.26-3.74-3.39-6.47-3.39
				c-1.44,0-2.61,0.32-3.53,0.95c-0.91,0.63-1.37,1.45-1.37,2.45c0,0.9,0.35,1.6,1.04,2.1c0.69,0.51,2.25,0.96,4.67,1.34l3.66,0.71
				c5.45,1,8.18,3.68,8.18,8.03c0,2.54-0.99,4.59-2.96,6.13c-1.97,1.54-4.59,2.32-7.85,2.32c-1.3,0-2.57-0.19-3.83-0.57
				c-1.25-0.38-2.3-0.85-3.14-1.41v1.5h-4.84v-9.47h4.84v0.95c0.26,1.33,1,2.4,2.22,3.21c1.22,0.81,2.64,1.21,4.25,1.21
				c1.77,0,3.17-0.31,4.18-0.93c1.02-0.62,1.53-1.55,1.53-2.78c0-0.89-0.4-1.57-1.21-2.01c-0.81-0.45-2.43-0.91-4.87-1.38
				l-2.82-0.61c-2.79-0.56-4.83-1.53-6.13-2.89c-1.3-1.37-1.95-3.11-1.95-5.24c0-1.72,0.48-3.19,1.43-4.41
				c0.96-1.22,2.18-2.14,3.67-2.75c1.49-0.61,3.03-0.92,4.6-0.92C46.62,13.16,48.84,13.68,50.65,14.72z"/>
			<path style="fill:#FFFFFF;" d="M79.9,12.79c5.14,0,7.71,2.78,7.71,8.34v15.21h4.68v4.84H82.16v-18.1c0-1.98-0.28-3.38-0.86-4.18
				c-0.57-0.81-1.45-1.21-2.64-1.21c-2.02,0-4.64,1.18-7.87,3.55v15.1h4.79v4.84H60.4v-4.84h4.95V6.32H60.4V1.53h10.39v15.23
				C74.06,14.12,77.09,12.79,79.9,12.79z"/>
			<path style="fill:#FFFFFF;" d="M109.11,36.34v4.84H95.14v-4.84h4.32V18.4h-4.32v-4.87h9.76v22.81H109.11z M105.22,4.22
				c0,0.89-0.32,1.67-0.97,2.32c-0.65,0.65-1.42,0.97-2.32,0.97c-0.89,0-1.66-0.32-2.29-0.97c-0.63-0.65-0.95-1.42-0.95-2.32
				c0-0.9,0.32-1.67,0.95-2.32c0.63-0.65,1.39-0.97,2.29-0.97c0.93,0,1.71,0.32,2.34,0.95C104.9,2.51,105.22,3.29,105.22,4.22z"/>
			<path style="fill:#FFFFFF;" d="M141.94,27.4c0,2.68-0.64,5.14-1.92,7.37c-1.28,2.23-3.03,3.99-5.24,5.29
				c-2.21,1.3-4.66,1.95-7.34,1.95c-2.77,0-5.27-0.65-7.5-1.95c-2.23-1.3-3.96-3.06-5.2-5.29c-1.24-2.23-1.85-4.68-1.85-7.37
				c0-2.81,0.62-5.31,1.85-7.52c1.24-2.21,2.96-3.94,5.17-5.2c2.21-1.25,4.72-1.88,7.53-1.88c2.72,0,5.18,0.66,7.39,1.99
				c2.21,1.32,3.95,3.1,5.21,5.33C141.31,22.34,141.94,24.77,141.94,27.4z M127.44,36.71c1.61,0,3.1-0.42,4.45-1.26
				c1.35-0.84,2.4-1.97,3.16-3.39c0.75-1.42,1.13-2.97,1.13-4.66c0-1.65-0.38-3.18-1.13-4.6c-0.75-1.42-1.81-2.57-3.16-3.43
				c-1.35-0.87-2.85-1.3-4.5-1.3c-1.61,0-3.1,0.43-4.45,1.28s-2.41,2-3.18,3.43s-1.16,2.98-1.16,4.63c0,1.65,0.39,3.19,1.16,4.63
				c0.77,1.44,1.84,2.58,3.21,3.42C124.34,36.29,125.83,36.71,127.44,36.71z"/>
			<path style="fill:#FFFFFF;" d="M158.97,36.92c2.44,0,5.08-1.18,7.92-3.55V18.4H162v-4.87h10.34v22.81h4.74v4.84h-10.18V38
				c-3.19,2.44-6.23,3.66-9.1,3.66c-2.6,0-4.51-0.77-5.75-2.32c-1.24-1.54-1.85-4.1-1.85-7.68V18.4h-3.87v-4.87h9.31v19.26
				c0,1.42,0.26,2.46,0.78,3.13C156.92,36.59,157.78,36.92,158.97,36.92z"/>
			<path style="fill:#FFFFFF;" d="M183.8,41.18v-7h7.03v7H183.8z"/>
			<path style="fill:#FFFFFF;" d="M232.25,36.34v4.84h-10.39v-4.05c-2.77,3.02-6.08,4.53-9.92,4.53c-2.67,0-5.02-0.63-7.06-1.88
				c-2.04-1.25-3.63-2.96-4.76-5.12c-1.13-2.16-1.7-4.54-1.7-7.16c0-2.67,0.6-5.12,1.8-7.37s2.86-4.03,4.99-5.35
				c2.12-1.32,4.42-1.99,6.89-1.99c1.79,0,3.49,0.36,5.09,1.08c1.6,0.72,3.16,1.85,4.67,3.39V6.32h-5.34V1.53h10.74v34.81H232.25z
				 M212.96,36.82c1.68,0,3.2-0.45,4.55-1.34c1.35-0.89,2.41-2.09,3.18-3.58c0.77-1.49,1.16-3.09,1.16-4.79
				c0-1.72-0.39-3.29-1.16-4.71c-0.77-1.42-1.84-2.54-3.21-3.37c-1.37-0.82-2.91-1.24-4.63-1.24c-1.67,0-3.15,0.44-4.46,1.33
				c-1.31,0.89-2.34,2.06-3.09,3.53c-0.75,1.46-1.13,3.03-1.13,4.7c0,1.79,0.39,3.4,1.16,4.84c0.77,1.44,1.82,2.57,3.16,3.39
				C209.82,36.4,211.31,36.82,212.96,36.82z"/>
			<path style="fill:#FFFFFF;" d="M264.7,28.74h-23.18c0.33,2.65,1.36,4.74,3.08,6.27c1.72,1.54,3.82,2.3,6.31,2.3
				c1.82,0,3.52-0.38,5.08-1.13c1.56-0.75,2.87-1.91,3.92-3.47l4.79,2.16c-1.51,2.35-3.49,4.13-5.93,5.33
				c-2.45,1.2-5.11,1.8-7.99,1.8c-2.98,0-5.63-0.62-7.95-1.87c-2.32-1.25-4.12-2.98-5.41-5.21c-1.29-2.23-1.93-4.74-1.93-7.53
				c0-2.77,0.64-5.27,1.91-7.5c1.27-2.23,3.01-3.97,5.22-5.22c2.21-1.25,4.65-1.88,7.31-1.88c2.91,0,5.45,0.64,7.62,1.93
				c2.17,1.29,3.87,3.13,5.12,5.53C263.92,22.65,264.6,25.48,264.7,28.74z M250.05,17.32c-2.05,0-3.85,0.69-5.39,2.07
				c-1.54,1.38-2.53,3.2-2.97,5.46h17.31c-0.51-2.26-1.59-4.08-3.24-5.46C254.11,18.01,252.21,17.32,250.05,17.32z"/>
			<path style="fill:#FFFFFF;" d="M278.66,18.4l5.97,15.68l5.95-15.68h-3.84v-4.87H300v4.87h-4.21l-8.81,23.26h-4.92l-9-23.26h-4.89
				v-4.87h14.1v4.87H278.66z"/>
		</g>
		<rect y="37.11" style="fill:#898989;" width="27.8" height="4.07"/>
	</g>
</g>
</svg>
