<svg width="54" height="55" viewBox="0 0 54 55" fill="none" xmlns="http://www.w3.org/2000/svg">
<rect x="15.1465" y="13.4368" width="25.8891" height="27.7383" fill="white"/>
<path d="M11.4921 5.93878C8.43217 5.93878 6.168 8.61697 6.26935 11.5215C6.36661 14.3119 6.24027 17.9259 5.33042 20.8731C4.41784 23.829 2.87446 25.7014 0.353516 25.9418V28.6559C2.87446 28.8963 4.41784 30.7688 5.33042 33.7246C6.24027 36.6719 6.36661 40.2858 6.26935 43.0763C6.168 45.9803 8.43217 48.659 11.4926 48.659H42.8465C45.9064 48.659 48.1701 45.9808 48.0688 43.0763C47.9715 40.2858 48.0979 36.6719 49.0077 33.7246C49.9207 30.7688 51.46 28.8963 53.981 28.6559V25.9418C51.46 25.7014 49.9207 23.829 49.0077 20.8731C48.0979 17.9263 47.9715 14.3119 48.0688 11.5215C48.1701 8.61743 45.9064 5.93878 42.8465 5.93878H11.4917H11.4921ZM36.7111 32.2358C36.7111 36.2351 33.728 38.6606 28.7774 38.6606H20.3502C19.8482 38.6606 19.4413 38.2537 19.4413 37.7517V16.8461C19.4413 16.3441 19.8482 15.9371 20.3502 15.9371H28.7293C32.8572 15.9371 35.5663 18.1731 35.5663 21.6062C35.5663 24.0158 33.7439 26.1731 31.422 26.5508V26.6767C34.5828 27.0235 36.7111 29.2122 36.7111 32.2358ZM27.8585 18.8185H23.0534V25.6055H27.1004C30.229 25.6055 31.9542 24.3457 31.9542 22.0938C31.9542 19.9837 30.4708 18.8185 27.8585 18.8185ZM23.0534 28.2987V35.7784H28.0353C31.2925 35.7784 33.0181 34.4713 33.0181 32.0149C33.0181 29.558 31.2443 28.2983 27.8258 28.2983H23.0534V28.2987Z" fill="#7E13F8"/>
</svg>
