<svg width="47" height="48" viewBox="0 0 47 48" fill="none" xmlns="http://www.w3.org/2000/svg">
<path fill-rule="evenodd" clip-rule="evenodd" d="M6.79873 42.4981L3.08887 0.889099H43.8543L40.1405 42.4913L23.4469 47.1197L6.79873 42.4981Z" fill="#0071BC"/>
<path fill-rule="evenodd" clip-rule="evenodd" d="M23.5059 43.5797L36.9783 39.8734L40.1349 4.35425H23.5059V43.5797Z" fill="#29ABE2"/>
<path fill-rule="evenodd" clip-rule="evenodd" d="M11.5811 19.6412L12.0279 24.7369L23.5062 19.6412V14.5373L11.5811 19.6412Z" fill="#B3B3B3"/>
<path fill-rule="evenodd" clip-rule="evenodd" d="M36.2184 9.08905L23.5059 14.5373V19.6412L35.78 14.1847L36.2184 9.08905Z" fill="#E6E6E6"/>
<path fill-rule="evenodd" clip-rule="evenodd" d="M23.5061 32.974L23.4667 32.9799L17.7743 31.4512L17.4024 27.3867H12.2793L12.9942 35.394L23.4655 38.2934L23.5061 38.2838V32.974Z" fill="#E6E6E6"/>
<path fill-rule="evenodd" clip-rule="evenodd" d="M23.5059 19.6412V24.7369H29.7381L29.1716 31.3991L23.5059 32.9784V38.2878L33.9424 35.3884L35.3167 19.6412H23.5059Z" fill="white"/>
<path fill-rule="evenodd" clip-rule="evenodd" d="M23.5062 19.6412H11.5811L12.0279 24.7369H23.5062V19.6412Z" fill="#E6E6E6"/>
<path fill-rule="evenodd" clip-rule="evenodd" d="M23.5059 14.1847V9.08905H23.4542H10.6748L11.127 14.1847H23.5059Z" fill="#E6E6E6"/>
<path fill-rule="evenodd" clip-rule="evenodd" d="M23.5059 9.08905V14.1208V14.1847H35.78L36.2184 9.08905H23.5059Z" fill="white"/>
</svg>
