<svg width="56" height="56" viewBox="0 0 56 56" fill="none" xmlns="http://www.w3.org/2000/svg">
<path fill-rule="evenodd" clip-rule="evenodd" d="M54.819 25.2876L30.597 1.067C29.2031 -0.328161 26.9406 -0.328161 25.5448 1.067L20.5152 6.09678L26.8955 12.4773C28.3783 11.9763 30.0784 12.3123 31.2605 13.4944C32.4481 14.6839 32.7817 16.3986 32.2685 17.8863L38.4176 24.0355C39.9053 23.523 41.6218 23.8547 42.81 25.0447C44.4705 26.7047 44.4705 29.3952 42.81 31.0564C41.1488 32.7175 38.4584 32.7175 36.7966 31.0564C35.5476 29.8061 35.239 27.9714 35.8714 26.4326L30.1369 20.6979L30.1363 35.7891C30.541 35.99 30.9233 36.2572 31.2605 36.5932C32.9211 38.2531 32.9211 40.9436 31.2605 42.606C29.5994 44.2666 26.9077 44.2666 25.249 42.606C23.5885 40.9436 23.5885 38.2531 25.249 36.5932C25.6593 36.1835 26.1341 35.8737 26.6405 35.6655V20.4337C26.1341 20.2268 25.6599 19.9188 25.249 19.5061C23.9908 18.2497 23.6883 16.4035 24.3329 14.8586L18.0438 8.56815L1.43548 25.1756C0.0397352 26.572 0.0397352 28.8346 1.43548 30.2297L25.6574 54.4509C27.052 55.8461 29.3139 55.8461 30.7103 54.4509L54.819 30.3423C56.2141 28.9466 56.2141 26.6828 54.819 25.2876Z" fill="#DE4C36"/>
</svg>
