<svg width="47" height="47" viewBox="0 0 47 47" fill="none" xmlns="http://www.w3.org/2000/svg">
<g clip-path="url(#clip0_112_256)">
<path fill-rule="evenodd" clip-rule="evenodd" d="M0.875977 0.883179H46.023V46.0302H0.875977V0.883179V0.883179Z" fill="#F7DF1E"/>
<path fill-rule="evenodd" clip-rule="evenodd" d="M12.7462 38.6113L16.2011 36.5205C16.8677 37.7022 17.474 38.7021 18.9284 38.7021C20.3225 38.7021 21.2014 38.1568 21.2014 36.0356V21.61H25.4441V36.0956C25.4441 40.4899 22.8683 42.4901 19.1102 42.4901C15.7163 42.4901 13.7461 40.7323 12.7461 38.611" fill="black"/>
<path fill-rule="evenodd" clip-rule="evenodd" d="M27.749 38.1567L31.2036 36.1566C32.113 37.6417 33.2949 38.7326 35.3858 38.7326C37.1438 38.7326 38.2648 37.8537 38.2648 36.6415C38.2648 35.1868 37.1132 34.6715 35.1736 33.8233L34.1133 33.3684C31.0522 32.0655 29.0217 30.429 29.0217 26.9741C29.0217 23.792 31.4461 21.3675 35.2344 21.3675C37.9316 21.3675 39.8711 22.3071 41.265 24.7618L37.9617 26.8831C37.2343 25.5801 36.4466 25.065 35.2345 25.065C33.9919 25.065 33.2039 25.8529 33.2039 26.8831C33.2039 28.156 33.9919 28.6713 35.8101 29.4593L36.8707 29.9138C40.477 31.4595 42.5076 33.0352 42.5076 36.5808C42.5076 40.3995 39.5074 42.4904 35.4768 42.4904C31.5371 42.4904 28.9914 40.6116 27.7491 38.1567" fill="black"/>
</g>
<defs>
<clipPath id="clip0_112_256">
<rect width="46.2306" height="46.2306" fill="white" transform="translate(0.333984 0.341431)"/>
</clipPath>
</defs>
</svg>
