<svg width="55" height="54" viewBox="0 0 55 54" fill="none" xmlns="http://www.w3.org/2000/svg">
<g clip-path="url(#clip0_112_396)">
<path d="M44.5857 18.4748C44.0294 18.2833 43.4529 18.1022 42.8594 17.9308C42.9569 17.5327 43.0465 17.1397 43.1261 16.7534C44.4329 10.41 43.5784 5.29976 40.6608 3.61725C37.8632 2.00395 33.2879 3.68608 28.667 7.70745C28.2227 8.09415 27.7771 8.50356 27.3317 8.93263C27.0349 8.64875 26.7386 8.37441 26.4431 8.112C21.6003 3.81208 16.7462 2.00004 13.8314 3.68741C11.0365 5.3054 10.2088 10.1095 11.3851 16.1212C11.4987 16.7018 11.6315 17.2948 11.7816 17.8977C11.0946 18.0927 10.4314 18.3006 9.7968 18.5218C4.11916 20.5013 0.493164 23.6036 0.493164 26.8215C0.493164 30.145 4.38568 33.4785 10.2994 35.4998C10.7661 35.6593 11.2503 35.8101 11.7494 35.9533C11.5874 36.6054 11.4465 37.2444 11.3282 37.8676C10.2066 43.7749 11.0825 48.4655 13.87 50.0733C16.7493 51.7336 21.5814 50.027 26.2868 45.914C26.6587 45.5888 27.0319 45.2441 27.4058 44.8827C27.8904 45.3494 28.3743 45.791 28.8556 46.2053C33.4132 50.1273 37.9146 51.711 40.6996 50.0988C43.576 48.4336 44.5108 43.3948 43.2971 37.2642C43.2044 36.796 43.0966 36.3177 42.9754 35.8308C43.3148 35.7305 43.6479 35.627 43.9728 35.5193C50.1206 33.4823 54.1206 30.1894 54.1206 26.8215C54.1206 23.5919 50.3777 20.4687 44.5857 18.4748ZM43.2523 33.3447C42.959 33.4418 42.6582 33.5356 42.3515 33.6266C41.6729 31.4779 40.7569 29.1932 39.6359 26.8327C40.7056 24.5284 41.5862 22.2728 42.2459 20.1381C42.7945 20.2969 43.3269 20.4643 43.84 20.641C48.8026 22.3494 51.8297 24.8752 51.8297 26.8215C51.8297 28.8946 48.5605 31.5858 43.2523 33.3447ZM41.0497 37.7091C41.5864 40.42 41.663 42.8709 41.3075 44.7869C40.9881 46.5086 40.3458 47.6564 39.5516 48.1161C37.8616 49.0944 34.2474 47.8228 30.3497 44.4687C29.9028 44.0842 29.4527 43.6736 29.0012 43.2391C30.5123 41.5865 32.0225 39.6652 33.4965 37.5315C36.089 37.3014 38.5383 36.9253 40.7594 36.4119C40.8688 36.8532 40.966 37.286 41.0497 37.7091ZM18.776 47.9471C17.1248 48.5302 15.8097 48.5469 15.0147 48.0886C13.3231 47.1129 12.6199 43.3468 13.5792 38.2949C13.689 37.7163 13.8198 37.122 13.9705 36.5145C16.1674 37.0003 18.5987 37.3498 21.1974 37.5605C22.6813 39.6484 24.2351 41.5676 25.801 43.248C25.4589 43.5783 25.1181 43.8927 24.7792 44.189C22.6986 46.0077 20.6135 47.2981 18.776 47.9471ZM11.0403 33.332C8.42538 32.4382 6.26587 31.2766 4.78564 30.0091C3.45555 28.87 2.78402 27.7391 2.78402 26.8215C2.78402 24.8688 5.69533 22.378 10.5509 20.6851C11.1401 20.4797 11.7568 20.2861 12.3968 20.1043C13.0679 22.2871 13.9482 24.5694 15.0105 26.8772C13.9344 29.2194 13.0416 31.538 12.364 33.7465C11.9077 33.6153 11.4657 33.4773 11.0403 33.332ZM13.6334 15.6812C12.6255 10.5306 13.2949 6.64512 14.9792 5.67013C16.7733 4.63148 20.7406 6.11238 24.9219 9.82515C25.1892 10.0625 25.4575 10.3108 25.7266 10.5678C24.1685 12.2409 22.6289 14.1456 21.1582 16.2212C18.636 16.455 16.2218 16.8305 14.002 17.3333C13.8625 16.772 13.7389 16.2204 13.6334 15.6812ZM36.7658 21.3932C36.2352 20.4766 35.6904 19.5817 35.1351 18.7113C36.8461 18.9276 38.4855 19.2147 40.025 19.5661C39.5628 21.0474 38.9867 22.5961 38.3086 24.1839C37.8221 23.2603 37.3076 22.3291 36.7658 21.3932ZM27.3325 12.2051C28.3892 13.3499 29.4474 14.628 30.4883 16.0148C29.4394 15.9653 28.3775 15.9395 27.3069 15.9395C26.2464 15.9395 25.1923 15.9647 24.15 16.0134C25.1919 14.6395 26.2593 13.363 27.3325 12.2051ZM17.8387 21.409C17.3086 22.3282 16.8037 23.2543 16.3249 24.1821C15.6577 22.6 15.087 21.0441 14.6208 19.5418C16.1508 19.1994 17.7825 18.9194 19.4826 18.7073C18.9194 19.5857 18.3702 20.4872 17.8387 21.4088V21.409ZM19.5316 35.0992C17.775 34.9032 16.1189 34.6376 14.5892 34.3047C15.0628 32.7756 15.6462 31.1865 16.3274 29.5703C16.8075 30.4974 17.3144 31.4239 17.8478 32.3451H17.8479C18.3911 33.2835 18.9539 34.2027 19.5316 35.0992ZM27.3959 41.5994C26.31 40.4279 25.227 39.132 24.1692 37.7381C25.1961 37.7783 26.2429 37.799 27.3069 37.799C28.4 37.799 29.4805 37.7743 30.5441 37.727C29.4998 39.146 28.4454 40.444 27.3959 41.5994ZM38.3305 29.4879C39.0472 31.1216 39.6515 32.7024 40.1312 34.2054C38.5764 34.5601 36.8976 34.8458 35.1288 35.0581C35.6855 34.1759 36.235 33.2656 36.775 32.3293C37.3213 31.382 37.84 30.4333 38.3305 29.4879ZM34.7906 31.1848C33.9523 32.6383 33.0916 34.0259 32.2179 35.3356C30.6266 35.4494 28.9825 35.508 27.3069 35.508C25.638 35.508 24.0147 35.4562 22.4515 35.3547C21.5426 34.0278 20.6632 32.6361 19.8303 31.1973H19.8305C18.9997 29.7624 18.2351 28.3154 17.5423 26.8765C18.2349 25.4342 18.9975 23.9856 19.8235 22.5533L19.8233 22.5536C20.6515 21.1174 21.5231 19.7325 22.4236 18.4139C24.0185 18.2934 25.654 18.2304 27.3068 18.2304H27.3069C28.9672 18.2304 30.6047 18.2938 32.1991 18.4154C33.0859 19.7244 33.9516 21.1048 34.783 22.5412C35.6239 23.9936 36.3963 25.4326 37.0949 26.8439C36.3984 28.2795 35.6277 29.733 34.7906 31.1848ZM39.5165 5.60198C41.3123 6.63758 42.0107 10.8142 40.8824 16.291C40.8104 16.6404 40.7294 16.9964 40.6414 17.3571C38.4165 16.8438 36.0005 16.4617 33.471 16.2244C31.9974 14.126 30.4704 12.2183 28.9377 10.5667C29.3497 10.1703 29.7613 9.79231 30.1711 9.43559C34.1302 5.9901 37.8306 4.62976 39.5165 5.60198ZM27.3069 22.0328C29.9516 22.0328 32.0956 24.1767 32.0956 26.8215C32.0956 29.4662 29.9516 31.6102 27.3069 31.6102C24.6622 31.6102 22.5181 29.4662 22.5181 26.8215C22.5181 24.1767 24.6622 22.0328 27.3069 22.0328Z" fill="#00D8FF"/>
</g>
<defs>
<clipPath id="clip0_112_396">
<rect width="53.6275" height="53.6275" fill="white" transform="translate(0.493164 0.0773315)"/>
</clipPath>
</defs>
</svg>
