<svg width="55" height="55" viewBox="0 0 55 55" fill="none" xmlns="http://www.w3.org/2000/svg">
<path d="M27.2141 11.3266C20.0638 11.3266 15.5948 14.9018 13.8073 22.0521C16.4886 18.4769 19.6169 17.1362 23.1921 18.03C25.2319 18.54 26.6899 20.0198 28.3036 21.6579C30.9326 24.3264 33.9753 27.4148 40.621 27.4148C47.7713 27.4148 52.2403 23.8397 54.0278 16.6893C51.3465 20.2645 48.2182 21.6052 44.643 20.7114C42.6032 20.2014 41.1452 18.7216 39.5315 17.0835C36.9025 14.415 33.8599 11.3266 27.2141 11.3266ZM13.8073 27.4148C6.65693 27.4148 2.18797 30.99 0.400391 38.1403C3.08176 34.5652 6.21003 33.2245 9.7852 34.1183C11.825 34.6282 13.283 36.108 14.8968 37.7462C17.5257 40.4146 20.5684 43.5031 27.2141 43.5031C34.3644 43.5031 38.8334 39.9279 40.621 32.7776C37.9396 36.3527 34.8113 37.6934 31.2362 36.7996C29.1963 36.2897 27.7384 34.8099 26.1246 33.1717C23.4957 30.5033 20.453 27.4148 13.8073 27.4148Z" fill="url(#paint0_linear_112_377)"/>
<defs>
<linearGradient id="paint0_linear_112_377" x1="-1.08926" y1="21.6231" x2="45.2268" y2="48.3278" gradientUnits="userSpaceOnUse">
<stop stop-color="#2298BD"/>
<stop offset="1" stop-color="#0ED7B5"/>
</linearGradient>
</defs>
</svg>
