<svg width="47" height="47" viewBox="0 0 47 47" fill="none" xmlns="http://www.w3.org/2000/svg">
<g clip-path="url(#clip0_116_143)">
<path d="M3.89887 0.341431H42.9059C44.9006 0.341431 46.5177 1.95847 46.5177 3.95319V42.9602C46.5177 44.955 44.9006 46.572 42.9059 46.572H3.89887C1.90415 46.572 0.287109 44.955 0.287109 42.9602V3.95319C0.287109 1.95847 1.90415 0.341431 3.89887 0.341431Z" fill="#3178C6"/>
<path d="M27.4691 36.5448V41.5327C28.2803 41.9484 29.2397 42.2601 30.3473 42.468C31.4548 42.6758 32.6221 42.7797 33.8494 42.7797C35.0453 42.7797 36.1815 42.6653 37.2578 42.4367C38.3341 42.2081 39.2781 41.8314 40.0891 41.3068C40.9003 40.782 41.5425 40.0961 42.0158 39.2492C42.4889 38.4024 42.7255 37.3555 42.7255 36.1085C42.7255 35.2045 42.5902 34.4121 42.3199 33.7315C42.0496 33.0508 41.6595 32.4455 41.1499 31.9156C40.6404 31.3856 40.0293 30.9103 39.3171 30.4894C38.6047 30.0686 37.8012 29.6711 36.9068 29.2971C36.2516 29.0268 35.6642 28.7646 35.1441 28.5099C34.6241 28.2553 34.1821 27.9956 33.8182 27.7305C33.4541 27.4656 33.1733 27.185 32.9757 26.8888C32.7782 26.5926 32.6794 26.2576 32.6794 25.8835C32.6794 25.5405 32.7677 25.2315 32.9445 24.9561C33.1213 24.6807 33.371 24.4444 33.6934 24.247C34.0157 24.0494 34.4109 23.8963 34.879 23.787C35.3469 23.6779 35.867 23.6234 36.4389 23.6234C36.8549 23.6234 37.2943 23.6546 37.757 23.7169C38.2198 23.7792 38.6852 23.8753 39.1533 24.0053C39.6212 24.1352 40.0761 24.2988 40.5182 24.4964C40.9601 24.6937 41.3684 24.9224 41.7427 25.1821V20.5216C40.9836 20.2307 40.1541 20.0151 39.2546 19.8748C38.3551 19.7344 37.3229 19.6644 36.1581 19.6644C34.9725 19.6644 33.8494 19.7917 32.7886 20.0463C31.7279 20.3008 30.7944 20.6982 29.9884 21.2386C29.1825 21.7791 28.5455 22.4675 28.0775 23.3039C27.6096 24.1404 27.3755 25.1405 27.3755 26.3044C27.3755 27.7903 27.8044 29.058 28.6626 30.1076C29.5205 31.157 30.8229 32.0455 32.5701 32.7729C33.2565 33.0535 33.8962 33.3288 34.4889 33.5991C35.0818 33.8693 35.5939 34.1497 36.0255 34.4406C36.4571 34.7316 36.7977 35.0485 37.0473 35.3914C37.2968 35.7344 37.4216 36.1241 37.4216 36.5606C37.4216 36.8825 37.3436 37.1814 37.1876 37.4568C37.0317 37.732 36.795 37.9711 36.4779 38.1737C36.1608 38.3764 35.7655 38.5347 35.2923 38.6491C34.8192 38.7634 34.2653 38.8206 33.6309 38.8206C32.5494 38.8206 31.4783 38.631 30.4175 38.2516C29.3566 37.8723 28.3738 37.3035 27.4691 36.5448ZM19.1555 24.1325H25.5696V20.0255H7.69141V24.1325H14.0742V42.4185H19.1555V24.1325Z" fill="white"/>
</g>
<defs>
<clipPath id="clip0_116_143">
<rect width="46.2306" height="46.2306" fill="white" transform="translate(0.287109 0.341431)"/>
</clipPath>
</defs>
</svg>
